# xmcd
#
# Track frame offsets:
#  150
#  15530
#  33481
#  54295
#  75387
#  93793
#  113311
#  132822
#  152639
#  169712
#  183483
#  203782
#  220465
#  239946
#  258391
#
# Disc length: 3673 seconds
#
# Revision: 0
# Processed by: cddbd v1.5.1PL2 Copyright (c) Steve Scherf et al.
# Submitted via: Collectorz.com_Music_Collector 6.11
#
DISCID=bd0e570f
DTITLE=Nelson King - Ideas, Ideals, Thoughts And Songs
DYEAR=2006
DGENRE=Blues
TTITLE0=Ain't Gonna Beg
TTITLE1=Scenes From My Life
TTITLE2=Chance
TTITLE3=Falling From View
TTITLE4=Any Other Way
TTITLE5=Ghosts
TTITLE6=Loving You
TTITLE7=Blue Heaven
TTITLE8=Since You Went Away
TTITLE9=I Feel Alive
TTITLE10=Give Me Some Truth
TTITLE11=All I Wanna Do
TTITLE12=Mystified
TTITLE13=Loving You 2
TTITLE14=Way Of The World
EXTD=
EXTT0=
EXTT1=
EXTT2=
EXTT3=
EXTT4=
EXTT5=
EXTT6=
EXTT7=
EXTT8=
EXTT9=
EXTT10=
EXTT11=
EXTT12=
EXTT13=
EXTT14=
PLAYORDER=
